<svg width="360" height="360" viewBox="0 0 360 360" fill="none" xmlns="http://www.w3.org/2000/svg">
  <g stroke="#D8C6B4" stroke-width="3" stroke-linecap="round" stroke-linejoin="round" opacity="0.6">
    <path d="M46 88L60 60H82L96 74L110 60H132L146 88L130 104V144H62V104L46 88Z"/>
    <path d="M82 60C82 54 86 50 96 50C106 50 110 54 110 60"/>

    <rect x="246" y="42" width="58" height="96" rx="12"/>
    <path d="M266 56H284"/>
    <circle cx="275" cy="123" r="4"/>

    <path d="M176 156H198V186H176V156Z"/>
    <path d="M182 132H192V156H182V132Z"/>
    <path d="M182 122L187 110L192 122"/>
    <path d="M172 186H202V198H172V186Z"/>

    <path d="M42 246C42 228 56 214 74 214H126C144 214 158 228 158 246V274H42V246Z"/>
    <path d="M58 214V192H142V214"/>
    <path d="M58 274V292"/>
    <path d="M142 274V292"/>

    <path d="M238 244C238 228 250 216 266 216H294C310 216 322 228 322 244V292H238V244Z"/>
    <path d="M258 216C258 198 268 188 280 188C292 188 302 198 302 216"/>

    <circle cx="104" cy="316" r="18"/>
    <path d="M104 304V316L114 322"/>

    <path d="M196 282H216L234 306H208L196 294V282Z"/>
    <path d="M216 282L226 270H248"/>
    <path d="M234 306H248"/>
  </g>
</svg>
