<svg xmlns="http://www.w3.org/2000/svg" width="538" height="142" viewBox="0 0 538 142">
<g>
<path d="M 436.43 114.92 C430.56,114.16 428.26,113.08 423.24,108.59 C427.02,111.97 429.00,112.84 429.00,111.12 C429.00,109.88 426.85,108.29 424.50,107.80 C423.40,107.57 422.63,106.79 422.79,106.07 C422.95,105.34 422.47,104.02 421.73,103.12 C418.57,99.33 416.80,93.26 417.28,87.87 C417.91,80.88 418.20,79.86 420.54,76.40 C421.62,74.81 422.52,72.82 422.55,72.00 C422.57,71.18 423.19,70.63 423.92,70.79 C424.65,70.95 425.98,70.45 426.88,69.68 C427.77,68.91 429.98,67.79 431.78,67.18 C433.58,66.58 435.75,65.39 436.60,64.54 C437.98,63.17 437.94,63.00 436.10,63.00 C437.12,62.82 438.14,62.70 439.18,62.65 C439.05,62.89 439.00,63.21 439.00,63.62 C439.00,64.76 439.67,65.11 441.26,64.80 C442.60,64.55 446.39,65.83 450.51,67.93 C456.69,71.09 457.86,72.17 460.74,77.36 C462.53,80.58 464.00,84.03 464.00,85.02 C464.00,86.02 464.56,87.03 465.25,87.26 C465.78,87.44 466.17,87.37 466.43,87.08 C466.63,89.73 466.74,92.91 466.82,96.81 C466.95,102.92 466.92,107.15 466.72,109.86 C466.44,108.72 466.06,108.94 464.24,110.76 C463.01,111.99 462.00,113.45 462.00,114.00 C462.00,114.57 462.37,114.88 462.91,114.95 C461.88,115.08 460.76,115.01 459.73,114.76 C460.40,114.07 459.71,112.06 457.99,110.22 C455.87,107.94 453.54,108.14 452.57,110.69 C452.14,111.80 452.43,112.05 453.63,111.59 C453.90,111.49 454.18,111.44 454.45,111.46 C454.02,111.61 453.48,111.95 452.71,112.45 C451.35,113.35 449.84,113.99 449.37,113.88 C448.89,113.77 447.83,113.94 447.00,114.25 C443.96,115.41 441.38,115.57 436.43,114.92 ZM 165.28 114.90 C164.93,114.85 164.58,114.80 164.24,114.74 C164.55,114.56 164.63,114.21 164.44,113.71 C164.17,113.00 163.06,112.35 161.97,112.27 C160.23,112.14 159.56,113.03 160.35,113.79 C159.47,113.51 158.61,113.17 157.78,112.80 C158.89,113.22 159.10,112.82 158.00,111.50 C157.32,110.68 156.14,110.00 155.38,110.00 C154.62,110.00 154.00,109.39 154.00,108.65 C154.00,107.92 153.14,106.53 152.09,105.58 C151.04,104.63 149.13,101.43 147.84,98.46 C145.76,93.66 143.70,91.34 143.26,92.68 C143.09,91.40 143.00,90.08 143.00,88.73 C143.00,87.60 143.07,86.49 143.19,85.40 C143.86,86.50 146.04,84.32 146.57,81.47 C147.46,76.73 153.31,70.35 159.01,67.90 C163.54,65.95 165.93,63.46 164.13,63.24 C165.44,63.00 166.79,62.85 168.17,62.80 C168.05,63.00 168.00,63.27 168.00,63.61 C168.00,64.90 168.64,65.12 171.00,64.65 C172.65,64.32 174.00,64.42 174.00,64.87 C174.00,65.33 175.91,66.55 178.25,67.59 C184.53,70.38 192.00,77.65 192.00,80.97 C192.00,82.45 192.30,83.97 192.67,84.33 C193.58,85.25 194.57,85.16 194.89,84.30 C195.05,85.31 195.18,86.39 195.30,87.56 C195.07,86.86 194.81,86.52 194.50,86.64 C193.28,87.10 193.00,89.44 193.00,98.98 C193.00,108.23 192.68,111.02 191.50,112.00 C190.68,112.68 190.00,113.64 190.00,114.12 C190.00,114.61 190.23,114.89 190.60,114.99 C188.74,115.23 186.80,114.55 185.66,112.92 C185.36,112.49 185.11,112.15 184.88,111.90 C185.06,112.08 185.24,112.31 185.44,112.58 C186.39,113.89 186.88,114.00 187.47,113.05 C187.93,112.31 187.45,111.01 186.28,109.84 C184.34,107.90 184.29,107.90 179.41,110.49 C176.71,111.93 174.07,113.53 173.55,114.05 C173.03,114.57 173.04,114.87 173.42,114.97 C170.94,115.31 168.27,115.28 165.28,114.90 ZM 220.65 114.86 C214.55,113.95 209.30,110.49 205.84,105.14 C207.86,107.93 208.78,105.83 206.87,102.25 C205.85,100.35 205.50,94.93 205.50,81.29 C205.50,63.62 205.43,62.98 203.75,65.06 C203.39,65.50 203.10,65.98 202.87,66.62 C203.70,63.70 205.26,63.00 207.97,63.00 C212.47,63.00 213.69,64.90 213.94,76.08 C213.48,65.41 212.39,63.53 208.89,63.27 C207.59,63.17 207.01,63.41 207.61,63.79 C210.31,65.54 211.00,69.39 211.00,82.71 C211.00,93.62 211.33,97.03 212.56,98.78 C213.41,100.00 214.20,101.00 214.31,101.00 C214.37,101.00 214.38,98.14 214.33,93.79 C214.51,96.59 214.76,98.54 215.03,99.06 C215.99,100.85 218.48,102.48 221.26,103.34 C220.37,103.19 219.67,103.03 219.35,102.92 C217.11,102.10 217.76,104.52 220.11,105.74 C223.25,107.36 225.49,107.32 226.91,105.61 C227.67,104.69 227.51,104.30 225.80,103.99 C228.01,103.89 229.85,103.01 231.89,101.10 L 235.00 98.20 L 235.00 82.82 C235.00,95.84 235.21,97.85 236.50,97.36 C237.73,96.89 238.00,94.33 238.00,83.02 C238.00,75.45 238.26,67.73 238.57,65.88 L 239.03 63.19 C239.60,63.05 240.26,63.00 241.00,63.00 C243.23,63.00 244.65,63.48 245.55,65.35 C244.82,63.90 243.73,63.41 242.14,63.29 C240.04,63.13 240.04,63.13 242.02,65.25 C243.81,67.17 244.00,68.81 244.00,81.99 C244.00,92.34 244.36,96.96 245.25,97.85 C246.25,98.85 246.56,95.97 246.78,83.42 C246.92,75.49 246.84,70.64 246.27,67.69 C246.85,70.57 247.00,75.13 247.00,82.29 C247.00,90.56 247.46,97.98 248.03,99.06 C249.10,101.06 251.36,102.53 253.94,103.29 C253.21,103.15 252.63,103.02 252.35,102.92 C250.11,102.10 250.76,104.52 253.11,105.74 C256.30,107.39 259.66,107.32 260.32,105.60 C260.67,104.69 259.98,104.18 257.87,103.86 C259.88,103.87 261.84,103.43 263.40,102.47 C263.15,102.75 263.00,103.01 263.00,103.24 C263.00,103.66 263.62,104.00 264.38,104.00 C266.02,104.00 268.24,101.57 267.38,100.72 C267.06,100.40 266.12,100.66 265.20,101.15 C268.44,98.31 269.00,94.27 269.00,80.41 C269.00,67.59 269.22,65.55 270.75,64.39 C272.56,63.02 274.59,62.74 276.28,63.48 C275.89,63.37 275.47,63.31 275.00,63.28 C272.87,63.11 272.85,63.17 274.63,64.47 C276.28,65.67 276.56,67.69 277.00,81.30 C277.44,94.82 277.28,97.13 275.76,99.63 C274.80,101.21 274.01,103.54 274.01,104.81 C274.00,106.70 274.64,106.99 275.70,105.80 C271.24,112.31 265.29,115.21 256.74,115.11 C251.66,115.05 247.26,113.68 243.80,111.08 C245.75,112.18 246.52,110.23 244.44,107.94 C241.44,104.62 237.00,106.07 237.00,110.35 C237.00,111.21 237.01,111.68 237.21,111.78 C232.72,114.75 227.07,115.82 220.65,114.86 ZM 98.00 114.06 C98.00,114.55 98.30,114.83 98.74,114.94 C97.16,115.05 95.42,114.71 94.22,113.95 C94.68,113.92 95.15,113.56 95.59,112.85 C95.99,112.21 95.48,111.09 94.48,110.36 C93.51,109.65 92.84,109.34 92.47,109.43 C92.08,105.29 92.00,96.95 92.00,79.50 C92.00,64.02 92.00,55.29 92.49,50.37 C93.35,50.93 95.05,49.63 95.62,47.39 C96.35,44.45 96.77,44.43 99.68,47.17 C100.98,48.39 102.09,48.81 102.64,48.58 C102.94,50.87 103.00,54.28 103.00,59.34 L 103.00 72.28 L 108.02 71.68 C110.05,71.44 111.85,71.05 113.45,70.49 C112.51,70.88 111.53,71.22 110.75,71.40 C109.24,71.75 108.00,72.48 108.00,73.02 C108.00,75.50 117.60,73.21 118.65,70.47 C119.35,68.64 118.83,67.96 117.33,68.53 C121.19,65.78 123.00,61.31 123.00,54.85 C123.00,51.32 123.37,48.75 124.17,47.00 C123.36,48.77 123.00,51.39 123.00,55.00 C123.00,59.39 122.47,62.31 121.40,63.84 C119.66,66.32 120.07,67.57 122.33,66.70 C123.11,66.40 123.75,64.90 123.75,63.37 C123.75,61.84 124.26,60.41 124.88,60.21 C125.55,59.98 126.00,57.27 126.00,53.39 C126.00,48.55 126.38,46.79 127.51,46.36 C130.51,45.21 132.00,47.95 132.00,54.60 C132.00,61.90 129.92,68.03 125.83,72.78 C124.27,74.59 123.00,76.41 123.00,76.83 C123.00,77.24 125.03,79.57 127.50,82.00 C129.98,84.43 132.00,87.13 132.00,88.01 C132.00,88.88 132.51,90.11 133.13,90.73 C133.89,91.49 134.11,95.64 133.81,103.56 C133.52,111.04 133.42,113.74 133.89,114.10 C131.69,115.42 128.59,115.44 127.25,113.75 C126.70,113.06 126.03,108.37 125.76,103.31 C125.44,97.48 124.59,93.20 122.94,90.11 C123.74,91.35 124.33,92.66 124.61,93.91 C124.91,95.34 125.34,97.06 125.55,97.75 C125.76,98.44 126.40,99.00 126.97,99.00 C128.15,99.00 128.38,94.71 127.25,93.58 C126.84,93.17 126.46,92.53 126.42,92.17 C125.89,87.97 118.46,81.00 114.52,81.00 C111.85,81.00 112.89,82.93 116.33,84.37 C116.69,84.52 117.05,84.69 117.41,84.88 C115.28,83.91 112.67,83.38 109.49,83.18 L 103.00 82.77 L 103.00 97.68 C103.00,103.92 102.86,108.22 102.57,110.82 C102.12,110.62 101.30,110.80 100.24,111.54 C99.01,112.41 98.00,113.54 98.00,114.06 ZM 337.31 112.64 C336.49,113.90 336.09,114.54 336.14,114.82 C334.64,114.93 333.16,114.58 332.16,113.92 C332.64,113.74 333.00,112.95 333.00,111.61 C333.00,110.29 332.33,108.95 331.50,108.64 C330.92,108.42 330.50,108.49 330.26,108.82 C330.06,106.37 330.00,102.64 330.00,96.79 C330.00,92.01 330.07,88.25 330.27,85.19 C330.51,85.54 330.91,85.59 331.50,85.36 C332.41,85.01 333.00,83.50 333.00,81.54 C333.00,77.16 337.89,70.60 343.17,67.91 C345.48,66.73 348.00,65.15 348.76,64.38 C349.60,63.55 349.49,63.09 348.76,62.98 C349.70,62.82 350.64,62.71 351.59,62.66 C351.21,62.86 351.00,63.16 351.00,63.56 C351.00,64.61 351.75,65.06 353.25,64.88 C355.55,64.62 365.35,69.13 366.49,70.98 C367.51,72.64 370.56,72.15 372.49,70.01 C373.48,68.92 375.78,67.49 377.61,66.82 C380.80,65.67 382.73,63.35 380.99,63.04 C380.99,63.03 381.00,63.03 381.00,63.03 C382.07,62.82 383.15,62.70 384.22,62.65 C384.06,62.85 384.00,63.13 384.00,63.52 C384.00,64.48 384.70,65.02 385.75,64.87 C386.71,64.73 389.85,65.83 392.72,67.31 C395.59,68.79 398.61,70.00 399.44,70.00 C400.30,70.00 400.71,70.58 400.41,71.37 C400.12,72.13 400.60,73.46 401.48,74.34 C402.35,75.21 403.06,76.17 403.04,76.46 C402.91,78.37 403.19,79.04 404.75,80.61 C406.07,81.93 406.43,82.14 406.68,81.32 C406.94,84.23 407.00,88.54 407.00,95.76 C407.00,102.96 406.95,107.48 406.59,110.30 C405.58,109.88 402.00,112.86 402.00,114.23 C402.00,115.47 404.25,114.93 405.66,113.62 C404.91,114.84 403.72,115.00 401.87,115.00 C399.82,115.00 398.48,114.75 397.60,113.51 C397.81,113.50 398.02,113.38 398.24,113.16 C398.82,112.58 399.07,105.50 398.85,95.56 C398.57,82.38 398.20,78.74 397.05,78.03 C394.95,76.74 393.83,77.81 395.00,79.99 C395.24,80.44 395.46,82.09 395.63,84.46 C395.08,78.79 393.79,76.96 390.92,75.46 C390.95,75.47 390.97,75.48 390.99,75.50 C394.50,77.31 395.74,75.98 392.91,73.42 C391.41,72.06 389.26,71.56 384.82,71.53 C379.02,71.50 378.64,71.66 375.39,75.42 L 372.00 79.33 L 372.00 95.04 C372.00,107.79 371.72,110.99 370.50,112.00 C369.67,112.68 369.00,113.67 369.00,114.20 C369.00,114.47 369.21,114.67 369.55,114.78 C369.48,114.79 369.42,114.80 369.35,114.80 C366.90,115.04 365.39,114.89 364.46,113.31 C364.51,113.37 364.56,113.42 364.62,113.48 C365.51,114.37 366.46,114.87 366.74,114.59 C367.68,113.65 366.02,109.22 364.51,108.64 C363.98,108.44 363.59,108.52 363.34,108.78 C363.06,105.99 363.00,101.99 363.00,96.33 L 363.00 82.17 C363.88,83.63 365.00,82.98 365.00,80.50 C365.00,78.24 364.04,77.49 361.66,77.91 C361.19,78.00 361.00,77.50 361.23,76.80 C361.46,76.11 360.82,74.65 359.80,73.56 C358.36,72.01 356.62,71.56 351.89,71.53 C349.19,71.52 347.73,71.44 346.50,71.92 C344.81,72.59 343.53,74.31 339.98,78.71 C339.44,79.37 339.00,86.69 339.00,94.99 C339.00,107.45 338.71,110.52 337.31,112.64 ZM 176.76 102.01 C181.34,99.21 183.62,94.94 184.00,90.56 C184.02,94.74 184.23,95.05 185.62,93.90 C186.89,92.84 187.11,91.40 186.67,87.05 C186.35,84.01 185.62,81.37 185.04,81.18 C184.46,80.99 184.22,80.46 184.50,80.00 C184.78,79.54 183.15,77.57 180.88,75.63 C176.59,71.96 169.77,70.04 166.26,71.52 C165.29,71.92 163.51,72.33 162.31,72.41 C158.81,72.65 152.00,80.26 152.00,83.92 C152.00,87.93 153.06,87.80 155.14,83.57 C153.80,87.12 153.73,91.17 155.19,94.80 C153.31,91.35 152.00,91.18 152.00,94.54 C152.00,98.38 158.72,105.07 163.56,106.05 C165.73,106.48 168.79,106.65 170.38,106.42 C171.96,106.19 174.08,106.00 175.09,106.00 C177.63,106.00 184.00,100.21 184.00,97.90 C184.00,95.35 183.17,95.51 180.81,98.52 C177.32,102.95 171.91,104.64 166.86,103.86 C170.30,104.31 173.98,103.70 176.76,102.01 ZM 447.62 102.38 C455.19,98.79 457.90,89.89 453.81,82.07 C452.33,79.24 450.54,77.22 448.30,75.93 C451.28,77.09 452.51,76.22 450.46,73.96 C449.46,72.85 446.70,71.86 443.52,71.46 C437.19,70.67 431.18,72.96 426.50,77.94 C423.69,80.93 423.50,81.63 423.50,89.02 L 423.50 96.91 L 427.91 101.41 C430.33,103.88 433.48,106.10 434.91,106.35 C440.09,107.26 448.44,105.99 450.44,103.99 C453.23,101.21 451.68,100.45 447.40,102.48 C445.43,103.42 443.47,103.85 441.09,103.86 C443.46,103.73 445.84,103.22 447.62,102.38 ZM 316.00 114.23 C316.00,114.72 316.35,114.93 316.86,114.93 C315.28,115.07 313.50,114.74 312.27,113.98 C313.25,113.73 313.22,111.25 312.14,110.59 C311.46,110.16 310.89,110.32 310.63,110.81 C310.10,107.28 310.00,99.27 310.00,79.86 C310.00,65.31 310.20,54.71 310.56,49.49 C311.67,49.50 314.10,47.89 314.67,46.41 C315.11,45.27 315.80,45.53 317.87,47.60 C319.33,49.07 320.04,49.63 320.43,49.42 C321.33,61.97 321.31,98.65 320.38,110.26 C319.15,110.25 316.00,112.94 316.00,114.23 ZM 517.28 115.04 C515.96,114.72 514.70,114.27 513.53,113.70 C515.40,114.37 514.78,112.50 511.64,109.02 L 508.00 104.99 L 508.00 75.97 C508.00,49.95 508.17,46.87 509.64,46.31 C512.35,45.27 514.00,48.79 514.00,55.61 C514.00,64.46 514.35,65.00 520.04,65.00 C524.05,65.00 524.98,65.35 525.52,67.08 C526.42,69.90 525.71,70.37 519.69,70.98 L 514.50 71.50 L 514.22 87.39 C513.91,105.27 514.47,107.00 520.53,107.00 C524.61,107.00 526.56,109.09 525.07,111.87 C524.48,112.97 524.00,114.12 524.00,114.43 C524.00,114.81 524.34,114.99 524.83,115.00 C522.55,115.54 519.62,115.60 517.28,115.04 ZM 480.00 114.20 C480.00,114.47 480.21,114.67 480.55,114.78 C480.48,114.79 480.42,114.80 480.35,114.80 C478.78,114.96 477.21,114.62 476.16,113.92 C476.64,113.74 477.00,112.95 477.00,111.61 C477.00,110.29 476.33,108.95 475.50,108.64 C474.93,108.42 474.51,108.49 474.26,108.81 C474.06,106.28 474.00,102.38 474.01,96.18 C474.01,90.84 474.08,86.74 474.30,83.48 C474.50,83.67 474.85,83.61 475.37,83.41 C476.35,83.04 477.00,81.65 477.00,79.95 C477.00,78.39 477.46,76.84 478.02,76.49 C478.58,76.14 478.80,75.49 478.52,75.03 C477.82,73.90 484.67,68.01 488.08,66.82 C489.60,66.29 491.11,65.16 491.44,64.30 C491.75,63.49 491.30,63.12 490.40,63.12 C491.57,62.90 492.79,62.76 494.07,62.71 C494.90,62.68 495.61,62.66 496.23,62.67 C495.74,63.03 496.38,64.01 498.13,65.17 C499.66,66.19 500.08,67.18 499.60,68.67 C499.08,70.32 497.89,70.85 493.93,71.23 C490.19,71.59 488.15,72.44 485.95,74.54 L 483.00 77.37 L 483.00 94.06 C483.00,107.68 482.72,110.98 481.50,112.00 C480.67,112.68 480.00,113.67 480.00,114.20 ZM 294.00 114.12 C294.00,114.61 294.24,114.89 294.61,114.99 C294.41,115.00 294.21,115.00 294.00,115.00 C292.66,115.00 291.45,114.58 290.50,113.80 C290.53,113.80 290.55,113.79 290.57,113.77 C290.79,113.54 291.09,102.01 291.24,88.13 C291.49,63.96 291.43,62.99 289.75,65.06 C289.59,65.26 289.44,65.46 289.31,65.70 C290.18,63.37 291.62,63.00 294.00,63.00 C296.38,63.00 297.82,63.37 298.69,65.70 C298.56,65.46 298.41,65.26 298.25,65.06 C296.57,62.99 296.51,63.90 296.81,86.77 C297.09,107.47 296.92,110.82 295.56,111.95 C294.70,112.66 294.00,113.64 294.00,114.12 ZM 289.96 45.98 C290.75,46.46 292.08,46.34 293.12,45.70 C295.49,44.21 294.73,43.62 291.50,44.41 C292.21,44.14 293.02,44.00 293.92,44.00 C294.85,44.00 295.70,44.18 296.45,44.51 C296.36,44.67 296.39,45.07 296.46,45.72 C296.56,46.70 297.00,48.30 297.44,49.28 C298.01,50.55 297.59,51.62 295.97,53.02 C293.71,54.98 293.71,54.98 291.11,52.37 C288.80,50.06 288.46,49.97 288.14,51.57 C287.94,52.59 288.69,53.88 289.66,54.72 C288.37,53.78 288.00,52.71 288.00,50.54 C288.00,48.46 288.56,46.82 289.59,45.69 C289.68,45.78 289.80,45.88 289.96,45.98 ZM 454.64 83.75 C456.17,87.40 458.00,88.06 458.00,84.96 C458.00,82.71 454.49,78.35 453.75,79.67 C453.49,80.13 453.89,81.96 454.64,83.75 ZM 453.70 98.37 C454.02,98.68 454.61,98.74 455.02,98.49 C456.01,97.87 456.99,94.00 456.15,94.00 C455.12,94.00 453.04,97.71 453.70,98.37 ZM 278.96 66.14 C279.99,68.25 280.12,71.76 279.86,83.73 C279.62,94.35 279.47,97.96 278.50,100.69 C279.26,97.94 279.58,93.35 279.82,83.73 C280.06,74.02 279.94,68.85 278.96,66.14 ZM 93.43 45.92 C94.29,44.01 95.66,44.00 97.87,44.00 C99.76,44.00 100.96,44.22 101.72,45.41 C99.60,43.38 95.57,43.90 93.43,45.92 ZM 187.33 69.92 C190.40,72.76 192.36,75.36 193.62,78.97 C192.38,76.31 190.47,73.31 188.45,71.07 C188.09,70.68 187.72,70.30 187.33,69.92 ZM 182.84 83.22 C180.69,78.05 175.77,74.01 168.90,74.00 C166.77,74.00 164.83,74.41 163.10,75.13 C164.86,74.39 166.81,74.00 168.90,74.00 C175.61,74.01 180.67,77.52 182.84,83.22 ZM 195.96 104.45 C195.94,109.20 195.57,110.95 194.66,112.40 C195.29,111.05 195.72,108.00 195.96,104.45 ZM 459.53 70.60 C462.43,73.54 464.14,75.83 465.18,79.24 C463.82,75.93 461.91,73.03 459.53,70.60 ZM 371.00 67.47 C369.19,69.14 368.79,69.13 367.26,67.79 C365.09,65.88 361.59,64.24 358.39,63.27 C361.63,64.04 364.68,65.52 367.21,67.74 C368.54,68.91 369.08,68.98 371.00,67.47 ZM 288.71 110.51 C288.14,107.66 288.00,101.97 288.00,89.00 L 288.00 88.80 C288.00,99.50 288.26,107.21 288.71,110.51 ZM 505.39 91.11 C505.59,100.66 505.98,105.26 507.08,107.99 C506.02,106.15 505.63,103.22 505.39,91.11 ZM 153.22 110.04 C154.44,110.93 155.52,111.63 156.39,112.12 C152.12,109.87 148.67,106.46 146.34,102.23 C148.22,105.32 150.70,108.22 153.22,110.04 ZM 377.20 63.74 C375.65,64.31 374.00,65.17 372.65,66.11 C374.14,64.91 375.50,63.98 375.83,63.96 C375.98,63.95 376.49,63.87 377.20,63.74 ZM 426.70 66.62 C422.72,69.35 418.93,73.32 416.69,77.50 C416.68,77.52 416.66,77.55 416.65,77.57 C417.92,74.93 419.85,72.51 422.67,69.80 C423.92,68.59 425.27,67.53 426.70,66.62 ZM 399.81 68.29 C401.91,70.17 403.71,72.47 405.07,75.14 C405.29,75.56 405.48,75.97 405.65,76.40 C404.34,73.69 402.13,70.50 399.84,68.31 C399.83,68.30 399.82,68.29 399.81,68.29 ZM 293.00 55.94 C293.00,56.03 293.02,56.10 293.05,56.16 C292.37,56.05 291.67,55.83 290.98,55.49 C291.41,55.62 291.82,55.61 292.15,55.41 C292.62,55.12 293.00,55.36 293.00,55.94 ZM 204.52 102.90 C203.29,100.65 202.79,98.99 202.51,94.62 C202.88,98.33 203.51,100.82 204.52,102.90 ZM 338.08 67.71 C335.59,69.90 333.47,72.75 332.02,75.76 C332.79,73.83 333.83,72.23 335.24,70.53 C336.09,69.49 337.05,68.55 338.08,67.71 ZM 445.98 63.15 C450.82,64.14 455.43,66.50 459.15,70.22 C459.23,70.29 459.30,70.37 459.37,70.44 C456.01,67.07 451.74,64.64 446.76,63.35 C446.49,63.28 446.23,63.21 445.98,63.15 ZM 236.11 66.21 C236.61,64.69 237.33,63.85 238.34,63.41 L 237.07 64.86 C236.68,65.30 236.37,65.72 236.11,66.21 ZM 361.45 79.25 L 359.60 77.40 C358.19,75.99 356.68,75.00 355.13,74.42 C356.43,74.85 357.70,75.56 358.87,76.54 C359.82,77.34 360.76,78.34 361.45,79.25 ZM 158.00 65.11 C155.17,66.53 152.22,68.57 150.14,70.58 C152.35,68.30 155.01,66.44 158.00,65.11 ZM 176.46 63.61 C179.73,64.45 182.62,65.98 185.52,68.35 C182.90,66.28 179.79,64.65 176.46,63.61 ZM 446.09 74.95 C444.09,74.29 441.78,74.08 439.09,74.28 C437.69,74.39 436.61,74.51 435.70,74.71 C436.55,74.50 437.52,74.37 438.72,74.25 C441.75,73.96 444.09,74.18 446.09,74.95 ZM 315.08 44.01 C316.89,43.85 318.81,44.21 319.80,45.20 C319.85,45.25 319.91,45.37 319.96,45.56 C319.01,44.59 317.42,44.00 315.41,44.00 C315.30,44.00 315.19,44.00 315.08,44.01 ZM 484.77 65.03 C483.82,65.56 482.87,66.18 482.00,66.88 C479.34,69.03 477.45,71.30 476.18,73.94 C476.90,72.32 477.83,70.98 479.06,69.58 C480.76,67.65 482.65,66.14 484.77,65.03 ZM 295.74 114.88 C296.64,114.58 297.70,113.83 298.44,112.78 C298.49,112.70 298.54,112.63 298.59,112.55 C297.96,114.06 297.05,114.66 295.74,114.88 ZM 298.07 54.77 C297.17,55.60 296.00,56.11 294.71,56.23 C295.15,56.11 295.66,55.93 296.25,55.69 C297.01,55.38 297.60,55.09 298.07,54.77 ZM 320.00 113.27 C319.94,113.55 319.87,113.73 319.80,113.80 C319.24,114.36 318.36,114.71 317.37,114.87 C318.22,114.68 319.29,114.08 320.00,113.27 ZM 500.92 72.08 C499.61,73.34 497.62,74.00 495.13,74.00 C497.27,74.00 499.41,73.22 500.92,72.08 ZM 373.84 111.37 C374.70,108.47 374.98,103.38 374.99,94.67 C374.98,103.61 374.76,108.59 373.84,111.37 ZM 485.99 93.82 C485.98,103.22 485.77,108.40 484.87,111.28 C485.71,108.29 485.98,103.00 485.99,93.82 ZM 341.99 94.67 C341.98,103.88 341.75,108.88 340.76,111.61 C341.69,108.77 341.98,103.67 341.99,94.67 ZM 135.69 92.66 C136.26,95.26 136.63,98.12 136.79,101.24 C136.90,103.22 136.95,104.82 136.94,106.14 C136.93,104.90 136.88,103.38 136.79,101.51 C136.63,98.26 136.27,95.32 135.69,92.66 ZM 427.78 96.85 C426.15,94.74 426.00,93.30 426.00,89.00 L 426.00 88.96 C426.00,93.20 426.24,94.75 427.78,96.85 ZM 396.00 96.98 C396.00,96.36 396.00,95.76 396.00,95.18 C396.00,95.57 396.00,95.96 396.00,96.35 C396.00,100.21 396.07,103.90 396.18,106.79 C396.04,104.32 396.00,101.12 396.00,96.98 ZM 147.94 73.19 C147.05,74.47 146.17,75.98 145.41,77.48 C146.11,75.96 146.96,74.52 147.94,73.19 ZM 498.98 63.11 C499.79,63.45 500.39,64.00 501.09,64.86 C501.11,64.89 501.13,64.92 501.15,64.94 C500.50,64.19 499.73,63.53 498.98,63.11 ZM 299.84 49.71 C299.87,50.15 299.87,50.61 299.82,51.09 C299.79,51.42 299.73,51.73 299.66,52.03 C299.72,51.69 299.76,51.31 299.80,50.88 C299.83,50.47 299.85,50.08 299.84,49.71 ZM 101.12 114.30 C101.43,114.09 101.72,113.84 101.97,113.53 C101.98,113.52 101.99,113.51 102.00,113.50 C101.94,113.63 101.87,113.73 101.80,113.80 C101.61,113.99 101.38,114.16 101.12,114.30 ZM 311.17 45.71 C311.49,45.27 311.98,44.91 312.59,44.63 C312.04,44.91 311.56,45.27 311.17,45.71 ZM 181.74 112.13 C181.47,112.27 181.18,112.42 180.85,112.59 C180.42,112.82 179.98,113.03 179.54,113.22 C179.74,113.13 179.93,113.03 180.13,112.93 C180.75,112.62 181.28,112.35 181.74,112.13 ZM 383.38 74.10 C381.34,74.44 379.46,75.39 377.92,76.92 C379.46,75.38 381.34,74.43 383.38,74.10 ZM 429.82 78.83 C427.79,81.01 426.83,82.17 426.38,83.81 C426.83,82.17 427.79,81.01 429.82,78.83 ZM 135.59 112.50 C135.45,112.72 135.29,112.92 135.11,113.12 C135.17,113.04 135.23,112.97 135.29,112.89 C135.40,112.76 135.50,112.63 135.59,112.50 Z" fill="rgba(0,0,0,1)"/>
<path d="M 3.04 111.25 C3.07,107.91 3.62,99.20 5.45,73.83 C5.31,77.27 5.55,79.43 6.72,80.78 C8.91,83.31 14.34,83.04 26.61,83.12 C42.43,83.24 44.68,83.15 46.33,84.10 C46.79,84.37 47.21,84.72 47.86,85.18 C51.00,87.39 49.78,89.00 44.94,89.00 C42.77,89.00 41.00,89.45 41.00,90.00 C41.00,90.55 42.72,91.00 44.83,91.00 C49.71,91.00 50.29,91.63 48.24,94.76 L 46.57 97.30 L 49.04 95.95 C52.32,94.15 57.75,94.00 59.13,95.66 C59.74,96.40 60.71,97.00 61.28,97.00 C61.85,97.00 61.57,96.18 60.65,95.17 C58.31,92.58 58.60,91.00 61.44,91.00 C62.78,91.00 64.16,90.55 64.50,90.00 C64.85,89.44 64.03,89.00 62.62,89.00 C59.37,89.00 58.40,87.32 60.38,85.13 C61.48,83.92 63.01,83.52 65.44,83.80 C67.84,84.08 70.04,83.52 72.50,82.00 L 76.07 79.79 L 75.39 68.15 C75.37,67.90 75.36,67.66 75.34,67.40 C75.79,74.05 76.32,82.12 76.97,92.00 C77.53,100.53 78.22,109.19 78.51,111.25 L 79.02 115.00 L 3.00 115.00 ZM 53.00 104.00 C53.00,106.20 53.45,108.00 54.00,108.00 C54.55,108.00 55.00,106.20 55.00,104.00 C55.00,101.80 54.55,100.00 54.00,100.00 C53.45,100.00 53.00,101.80 53.00,104.00 ZM 55.00 99.08 C55.00,98.58 55.27,97.45 55.61,96.58 C56.01,95.54 55.66,95.00 54.61,95.00 C53.56,95.00 53.00,95.87 53.00,97.50 C53.00,98.88 53.45,100.00 54.00,100.00 C54.55,100.00 55.00,99.59 55.00,99.08 ZM 40.15 100.56 C39.94,101.61 40.31,102.06 41.15,101.78 C42.71,101.26 42.98,99.03 41.50,98.95 C40.95,98.92 40.34,99.64 40.15,100.56 ZM 72.50 30.50 L 73.20 38.25 C73.50,41.54 73.84,45.82 74.31,52.49 C74.07,49.25 73.82,46.11 73.60,43.50 L 72.50 30.50 Z" fill="rgba(223,48,39,1)"/>
<path d="M 55.28 81.75 C54.48,75.39 53.00,74.77 53.00,80.80 C53.00,83.48 53.19,84.97 53.66,85.61 C53.38,85.59 53.13,85.54 52.93,85.48 C51.74,85.10 50.75,85.60 50.03,86.95 C49.88,87.23 49.71,87.48 49.52,87.69 C49.79,87.03 49.26,86.17 47.86,85.18 C47.21,84.72 46.79,84.37 46.33,84.10 C44.68,83.15 42.43,83.24 26.61,83.12 C14.34,83.04 8.91,83.31 6.72,80.78 C4.76,78.52 5.40,74.02 6.07,65.00 C6.65,57.03 7.44,46.00 7.82,40.50 L 8.50 30.50 L 23.29 29.50 L 24.56 25.17 C27.48,15.26 35.73,8.16 42.80,9.49 C47.83,10.43 53.31,16.41 56.06,23.94 L 58.24 29.92 L 65.37 30.21 L 72.50 30.50 L 73.60 43.50 C74.21,50.65 75.01,61.74 75.39,68.15 L 76.07 79.79 L 72.50 82.00 C70.04,83.52 67.84,84.08 65.44,83.80 C63.01,83.52 61.48,83.92 60.38,85.13 C60.13,85.41 59.92,85.68 59.77,85.94 C59.91,84.27 59.57,84.21 57.35,85.06 C56.71,85.30 55.95,85.47 55.23,85.56 C55.55,85.00 55.54,83.84 55.28,81.75 ZM 55.57 29.77 C56.71,28.62 51.09,21.22 47.29,18.87 C42.29,15.78 35.97,16.68 31.33,21.14 C27.40,24.92 24.73,29.39 25.78,30.44 C26.69,31.35 54.62,30.72 55.57,29.77 ZM 65.34 80.43 C65.67,81.29 66.35,82.00 66.86,82.00 C68.26,82.00 68.93,79.50 67.95,77.92 C66.78,76.03 64.49,78.23 65.34,80.43 ZM 53.00 73.44 C53.00,74.85 53.45,76.00 54.00,76.00 C54.55,76.00 55.00,75.13 55.00,74.06 C55.00,72.99 54.55,71.84 54.00,71.50 C53.43,71.15 53.00,71.99 53.00,73.44 ZM 64.30 90.22 C64.62,89.82 64.36,89.36 63.45,89.06 C64.33,89.19 64.77,89.56 64.50,90.00 C64.45,90.08 64.38,90.15 64.30,90.22 ZM 47.25 88.84 C46.63,88.95 45.88,89.00 44.96,89.00 C42.85,89.00 41.11,89.42 41.01,89.95 C41.11,89.42 42.84,89.00 44.94,89.00 C45.84,89.00 46.61,88.94 47.25,88.84 Z" fill="rgba(225,80,36,1)"/>
<path d="M 53.00 104.00 C53.00,101.80 53.45,100.00 54.00,100.00 C54.55,100.00 55.00,101.80 55.00,104.00 C55.00,106.20 54.55,108.00 54.00,108.00 C53.45,108.00 53.00,106.20 53.00,104.00 ZM 65.34 80.43 C64.49,78.23 66.78,76.03 67.95,77.92 C68.93,79.50 68.26,82.00 66.86,82.00 C66.35,82.00 65.67,81.29 65.34,80.43 ZM 53.00 73.44 C53.00,71.99 53.43,71.15 54.00,71.50 C54.55,71.84 55.00,72.99 55.00,74.06 C55.00,75.13 54.55,76.00 54.00,76.00 C53.45,76.00 53.00,74.85 53.00,73.44 Z" fill="rgba(231,117,95,1)"/>
<path d="M 524.00 114.43 C524.00,114.12 524.48,112.97 525.07,111.87 C526.56,109.09 524.61,107.00 520.53,107.00 C514.47,107.00 513.91,105.27 514.22,87.39 L 514.50 71.50 L 519.69 70.98 C525.71,70.37 526.42,69.90 525.52,67.08 C524.98,65.35 524.05,65.00 520.04,65.00 C514.35,65.00 514.00,64.46 514.00,55.61 C514.00,48.79 512.35,45.27 509.64,46.31 C508.17,46.87 508.00,49.95 508.00,75.97 L 508.00 104.99 L 511.64 109.02 C515.60,113.41 515.55,115.25 511.55,112.62 C505.64,108.75 505.53,108.14 505.19,76.80 C504.96,54.60 505.17,48.00 506.11,48.00 C506.78,48.00 507.04,47.70 506.68,47.34 C505.45,46.12 508.23,44.00 511.07,44.00 C515.36,44.00 517.00,47.18 517.00,55.47 L 517.00 62.50 L 521.58 62.50 C524.96,62.50 526.53,63.01 527.58,64.44 C531.10,69.25 527.71,74.00 520.75,74.00 L 516.95 74.00 L 517.50 103.50 L 521.66 104.06 C523.95,104.36 526.54,105.20 527.41,105.93 C529.28,107.48 529.51,112.09 527.80,113.80 C526.57,115.03 524.00,115.46 524.00,114.43 ZM 133.81 103.56 C134.11,95.64 133.89,91.49 133.13,90.73 C132.51,90.11 132.00,88.88 132.00,88.01 C132.00,87.13 129.98,84.43 127.50,82.00 C125.03,79.57 123.00,77.24 123.00,76.83 C123.00,76.41 124.27,74.59 125.83,72.78 C129.92,68.03 132.00,61.90 132.00,54.60 C132.00,47.95 130.51,45.21 127.51,46.36 C126.38,46.79 126.00,48.55 126.00,53.39 C126.00,57.27 125.55,59.98 124.88,60.21 C124.26,60.41 123.75,61.84 123.75,63.37 C123.75,64.90 123.11,66.40 122.33,66.70 C120.07,67.57 119.66,66.32 121.40,63.84 C122.47,62.31 123.00,59.39 123.00,55.00 C123.00,47.13 124.72,44.00 129.03,44.00 C133.76,44.00 135.40,47.55 134.73,56.35 C134.11,64.52 132.07,70.27 128.44,74.06 L 125.99 76.62 L 128.92 79.43 C133.72,84.02 136.30,91.26 136.79,101.51 C137.16,109.31 136.96,110.83 135.29,112.89 C133.36,115.27 133.36,115.25 133.81,103.56 ZM 434.91 106.35 C433.48,106.10 430.33,103.88 427.91,101.41 L 423.50 96.91 L 423.50 89.02 C423.50,81.63 423.69,80.93 426.50,77.94 C431.18,72.96 437.19,70.67 443.52,71.46 C446.70,71.86 449.46,72.85 450.46,73.96 C452.78,76.52 450.90,77.29 447.03,75.37 C444.82,74.26 442.23,73.92 438.72,74.25 C434.35,74.67 433.09,75.32 429.82,78.83 C426.26,82.64 426.00,83.34 426.00,89.00 C426.00,94.66 426.26,95.36 429.82,99.17 C433.08,102.67 434.35,103.33 438.67,103.74 C442.23,104.08 444.80,103.71 447.40,102.48 C451.68,100.45 453.23,101.21 450.44,103.99 C448.44,105.99 440.09,107.26 434.91,106.35 ZM 480.00 114.20 C480.00,113.67 480.67,112.68 481.50,112.00 C482.72,110.98 483.00,107.68 483.00,94.06 L 483.00 77.37 L 485.95 74.54 C488.15,72.44 490.19,71.59 493.93,71.23 C497.89,70.85 499.08,70.32 499.60,68.67 C500.08,67.18 499.66,66.19 498.13,65.17 C495.43,63.38 495.38,62.02 498.03,62.72 C500.22,63.29 503.00,66.65 503.00,68.72 C503.00,71.36 499.06,74.00 495.13,74.00 C492.74,74.00 490.27,74.79 488.63,76.07 L 486.00 78.15 L 485.99 93.82 C485.97,110.11 485.15,114.16 481.72,114.81 C480.78,115.00 480.00,114.72 480.00,114.20 ZM 337.31 112.64 C338.71,110.52 339.00,107.45 339.00,94.99 C339.00,86.69 339.44,79.37 339.98,78.71 C343.53,74.31 344.81,72.59 346.50,71.92 C347.73,71.44 349.19,71.52 351.89,71.53 C356.62,71.56 358.36,72.01 359.80,73.56 C360.82,74.65 361.46,76.11 361.23,76.80 C361.00,77.50 361.19,78.00 361.66,77.91 C364.04,77.49 365.00,78.24 365.00,80.50 C365.00,83.47 363.40,83.82 362.51,81.04 C362.17,79.97 360.53,77.94 358.87,76.54 C354.51,72.88 348.81,73.03 344.92,76.92 L 342.00 79.85 L 341.99 94.67 C341.97,110.29 341.12,114.16 337.54,114.85 C335.71,115.20 335.70,115.11 337.31,112.64 ZM 369.00 114.20 C369.00,113.67 369.67,112.68 370.50,112.00 C371.72,110.99 372.00,107.79 372.00,95.04 L 372.00 79.33 L 375.39 75.42 C378.64,71.66 379.02,71.50 384.82,71.53 C389.26,71.56 391.41,72.06 392.91,73.42 C395.74,75.98 394.50,77.31 390.99,75.50 C386.22,73.03 381.28,73.57 377.92,76.92 L 375.00 79.85 L 374.99 94.67 C374.97,110.08 374.11,114.16 370.72,114.81 C369.78,115.00 369.00,114.72 369.00,114.20 ZM 422.93 108.32 C416.61,102.60 414.55,97.86 414.55,89.00 C414.55,83.25 415.04,80.57 416.69,77.50 C420.75,69.91 429.97,63.00 436.04,63.00 C437.93,63.00 437.99,63.15 436.60,64.54 C435.75,65.39 433.58,66.58 431.78,67.18 C429.98,67.79 427.77,68.91 426.88,69.68 C425.98,70.45 424.65,70.95 423.92,70.79 C423.19,70.63 422.57,71.18 422.55,72.00 C422.52,72.82 421.62,74.81 420.54,76.40 C418.20,79.86 417.91,80.88 417.28,87.87 C416.80,93.26 418.57,99.33 421.73,103.12 C422.47,104.02 422.95,105.34 422.79,106.07 C422.63,106.79 423.40,107.57 424.50,107.80 C426.85,108.29 429.00,109.88 429.00,111.12 C429.00,112.88 426.92,111.92 422.93,108.32 ZM 294.00 114.12 C294.00,113.64 294.70,112.66 295.56,111.95 C296.92,110.82 297.09,107.47 296.81,86.77 C296.51,63.90 296.57,62.99 298.25,65.06 C299.80,66.97 300.00,69.74 300.00,88.89 C300.00,106.88 299.74,110.93 298.44,112.78 C296.91,114.96 294.00,115.84 294.00,114.12 ZM 184.00 89.87 C183.99,80.38 177.93,74.01 168.90,74.00 C162.94,74.00 158.13,77.14 155.53,82.75 C153.19,87.77 152.00,88.17 152.00,83.92 C152.00,80.26 158.81,72.65 162.31,72.41 C163.51,72.33 165.29,71.92 166.26,71.52 C169.77,70.04 176.59,71.96 180.88,75.63 C183.15,77.57 184.78,79.54 184.50,80.00 C184.22,80.46 184.46,80.99 185.04,81.18 C185.62,81.37 186.35,84.01 186.67,87.05 C187.11,91.40 186.89,92.84 185.62,93.90 C184.16,95.11 184.00,94.71 184.00,89.87 ZM 289.08 112.15 C288.40,110.88 288.00,102.14 288.00,88.68 C288.00,69.73 288.20,66.97 289.75,65.06 C291.43,62.99 291.49,63.96 291.24,88.13 C291.09,102.01 290.79,113.54 290.57,113.77 C290.34,113.99 289.68,113.26 289.08,112.15 ZM 205.57 104.75 C202.79,100.50 202.05,95.53 202.02,80.86 C202.00,69.34 202.27,66.89 203.75,65.06 C205.43,62.98 205.50,63.62 205.50,81.29 C205.50,94.93 205.85,100.35 206.87,102.25 C208.87,105.99 207.77,108.11 205.57,104.75 ZM 274.01 104.81 C274.01,103.54 274.80,101.21 275.76,99.63 C277.28,97.13 277.44,94.82 277.00,81.30 C276.56,67.69 276.28,65.67 274.63,64.47 C272.85,63.17 272.87,63.11 275.00,63.28 C279.54,63.62 280.24,66.62 279.82,83.73 C279.51,96.14 279.06,100.18 277.72,102.69 C275.49,106.85 274.00,107.70 274.01,104.81 ZM 163.56 106.05 C158.72,105.07 152.00,98.38 152.00,94.54 C152.00,90.90 153.54,91.41 155.67,95.74 C160.44,105.46 174.15,106.98 180.81,98.52 C183.17,95.51 184.00,95.35 184.00,97.90 C184.00,100.21 177.63,106.00 175.09,106.00 C174.08,106.00 171.96,106.19 170.38,106.42 C168.79,106.65 165.73,106.48 163.56,106.05 ZM 465.25 87.26 C464.56,87.03 464.00,86.02 464.00,85.02 C464.00,84.03 462.53,80.58 460.74,77.36 C457.86,72.17 456.69,71.09 450.51,67.93 C446.39,65.83 442.60,64.55 441.26,64.80 C439.67,65.11 439.00,64.76 439.00,63.62 C439.00,61.65 440.07,61.61 446.76,63.35 C456.07,65.76 462.94,72.18 465.92,81.24 C467.33,85.52 467.07,87.89 465.25,87.26 ZM 212.56 98.78 C211.33,97.03 211.00,93.62 211.00,82.71 C211.00,69.39 210.31,65.54 207.61,63.79 C207.01,63.41 207.59,63.17 208.89,63.27 C213.15,63.59 213.83,66.30 214.18,84.25 C214.35,93.46 214.41,101.00 214.31,101.00 C214.20,101.00 213.41,100.00 212.56,98.78 ZM 396.63 112.49 C396.28,111.58 396.00,104.32 396.00,96.35 C396.00,88.39 395.55,81.03 395.00,79.99 C393.83,77.81 394.95,76.74 397.05,78.03 C398.20,78.74 398.57,82.38 398.85,95.56 C399.07,105.50 398.82,112.58 398.24,113.16 C397.61,113.79 397.04,113.55 396.63,112.49 ZM 366.49 70.98 C365.35,69.13 355.55,64.62 353.25,64.88 C351.75,65.06 351.00,64.61 351.00,63.56 C351.00,60.58 362.44,63.55 367.26,67.79 C368.86,69.19 369.23,69.14 371.26,67.23 C373.58,65.06 378.09,63.00 380.53,63.00 C383.01,63.00 381.04,65.58 377.61,66.82 C375.78,67.49 373.48,68.92 372.49,70.01 C370.56,72.15 367.51,72.64 366.49,70.98 ZM 192.67 84.33 C192.30,83.97 192.00,82.45 192.00,80.97 C192.00,77.65 184.53,70.38 178.25,67.59 C175.91,66.55 174.00,65.33 174.00,64.87 C174.00,64.42 172.65,64.32 171.00,64.65 C168.64,65.12 168.00,64.90 168.00,63.61 C168.00,62.25 168.71,62.09 172.25,62.63 C178.55,63.60 184.50,66.70 188.45,71.07 C191.87,74.86 195.00,80.86 195.00,83.62 C195.00,85.08 193.78,85.45 192.67,84.33 ZM 235.00 82.58 C235.00,68.47 235.17,67.03 237.07,64.86 L 239.15 62.50 L 238.57 65.88 C238.26,67.73 238.00,75.45 238.00,83.02 C238.00,94.33 237.73,96.89 236.50,97.36 C235.21,97.86 235.00,95.82 235.00,82.58 ZM 245.25 97.85 C244.36,96.96 244.00,92.34 244.00,81.99 C244.00,68.81 243.81,67.17 242.02,65.25 C240.04,63.13 240.04,63.13 242.14,63.29 C246.39,63.61 247.07,66.58 246.78,83.42 C246.56,95.97 246.25,98.85 245.25,97.85 ZM 143.00 84.44 C143.00,82.07 145.83,75.91 148.56,72.33 C151.26,68.79 157.80,64.55 162.26,63.46 C166.89,62.32 164.55,65.52 159.01,67.90 C153.31,70.35 147.46,76.73 146.57,81.47 C145.94,84.85 143.00,87.29 143.00,84.44 ZM 330.00 83.83 C330.00,76.83 335.41,68.36 342.06,64.97 C346.74,62.58 350.93,62.22 348.76,64.38 C348.00,65.15 345.48,66.73 343.17,67.91 C337.89,70.60 333.00,77.16 333.00,81.54 C333.00,83.50 332.41,85.01 331.50,85.36 C330.46,85.76 330.00,85.29 330.00,83.83 ZM 190.00 114.12 C190.00,113.64 190.68,112.68 191.50,112.00 C192.68,111.02 193.00,108.23 193.00,98.98 C193.00,89.44 193.28,87.10 194.50,86.64 C196.75,85.77 196.70,109.56 194.44,112.78 C192.91,114.96 190.00,115.84 190.00,114.12 ZM 404.75 80.61 C403.19,79.04 402.91,78.37 403.04,76.46 C403.06,76.17 402.35,75.21 401.48,74.34 C400.60,73.46 400.12,72.13 400.41,71.37 C400.71,70.58 400.30,70.00 399.44,70.00 C398.61,70.00 395.59,68.79 392.72,67.31 C389.85,65.83 386.71,64.73 385.75,64.87 C384.70,65.02 384.00,64.48 384.00,63.52 C384.00,62.20 384.69,62.03 387.75,62.59 C393.69,63.68 396.26,64.90 399.84,68.31 C403.66,71.96 407.26,78.39 406.81,80.75 C406.53,82.19 406.31,82.17 404.75,80.61 ZM 474.42 79.77 C475.29,74.35 477.58,70.46 482.00,66.88 C486.17,63.51 492.39,61.81 491.44,64.30 C491.11,65.16 489.60,66.29 488.08,66.82 C484.67,68.01 477.82,73.90 478.52,75.03 C478.80,75.49 478.58,76.14 478.02,76.49 C477.46,76.84 477.00,78.39 477.00,79.95 C477.00,81.65 476.35,83.04 475.37,83.41 C473.96,83.95 473.83,83.46 474.42,79.77 ZM 153.22 110.04 C148.76,106.81 144.39,100.20 143.38,95.16 C142.37,90.10 145.09,92.11 147.84,98.46 C149.13,101.43 151.04,104.63 152.09,105.58 C153.14,106.53 154.00,107.92 154.00,108.65 C154.00,109.39 154.62,110.00 155.38,110.00 C156.14,110.00 157.32,110.68 158.00,111.50 C160.04,113.96 157.59,113.21 153.22,110.04 ZM 125.55 97.75 C125.34,97.06 124.91,95.34 124.61,93.91 C123.79,90.15 120.16,85.96 116.33,84.37 C112.89,82.93 111.85,81.00 114.52,81.00 C118.46,81.00 125.89,87.97 126.42,92.17 C126.46,92.53 126.84,93.17 127.25,93.58 C128.38,94.71 128.15,99.00 126.97,99.00 C126.40,99.00 125.76,98.44 125.55,97.75 ZM 293.00 55.94 C293.00,55.36 292.62,55.12 292.15,55.41 C290.71,56.30 287.76,53.47 288.14,51.57 C288.46,49.97 288.80,50.06 291.11,52.37 C293.71,54.98 293.71,54.98 295.97,53.02 C297.59,51.62 298.01,50.55 297.44,49.28 C297.00,48.30 296.56,46.70 296.46,45.72 C296.28,44.02 296.37,44.02 298.18,45.67 C299.52,46.88 300.01,48.44 299.80,50.88 C299.55,53.75 298.93,54.60 296.25,55.69 C294.12,56.55 293.00,56.64 293.00,55.94 ZM 173.55 114.05 C174.07,113.53 176.71,111.93 179.41,110.49 C184.29,107.90 184.34,107.90 186.28,109.84 C187.45,111.01 187.93,112.31 187.47,113.05 C186.88,114.00 186.39,113.89 185.44,112.58 C184.26,110.97 183.93,110.99 180.13,112.93 C175.93,115.08 171.82,115.77 173.55,114.05 ZM 310.00 48.97 C310.00,46.02 312.20,44.00 315.41,44.00 C319.05,44.00 321.36,45.94 320.83,48.57 C320.56,49.96 320.06,49.80 317.87,47.60 C315.80,45.53 315.11,45.27 314.67,46.41 C313.93,48.35 310.00,50.50 310.00,48.97 ZM 108.00 73.02 C108.00,72.48 109.24,71.75 110.75,71.40 C112.26,71.05 114.55,70.10 115.84,69.30 C118.45,67.67 119.55,68.13 118.65,70.47 C117.60,73.21 108.00,75.50 108.00,73.02 ZM 92.00 49.04 C92.00,44.38 99.88,42.23 102.36,46.20 C104.05,48.90 102.22,49.56 99.68,47.17 C96.77,44.43 96.35,44.45 95.62,47.39 C94.86,50.42 92.00,51.72 92.00,49.04 ZM 237.00 110.35 C237.00,106.07 241.44,104.62 244.44,107.94 C246.82,110.56 245.47,112.73 242.90,110.41 C241.10,108.78 240.89,108.79 239.00,110.50 C237.06,112.25 237.00,112.25 237.00,110.35 ZM 253.11 105.74 C250.76,104.52 250.11,102.10 252.35,102.92 C252.98,103.15 255.16,103.53 257.18,103.77 C259.82,104.08 260.71,104.59 260.32,105.60 C259.66,107.32 256.30,107.39 253.11,105.74 ZM 220.11 105.74 C217.76,104.52 217.11,102.10 219.35,102.92 C219.98,103.15 222.20,103.54 224.28,103.78 C227.38,104.14 227.86,104.47 226.91,105.61 C225.49,107.32 223.25,107.36 220.11,105.74 ZM 456.70 112.98 C455.80,111.70 454.67,111.19 453.63,111.59 C452.43,112.05 452.14,111.80 452.57,110.69 C453.54,108.14 455.87,107.94 457.99,110.22 C460.10,112.48 460.66,115.00 459.06,115.00 C458.54,115.00 457.48,114.09 456.70,112.98 ZM 454.64 83.75 C453.89,81.96 453.49,80.13 453.75,79.67 C454.49,78.35 458.00,82.71 458.00,84.96 C458.00,88.06 456.17,87.40 454.64,83.75 ZM 462.00 114.00 C462.00,113.45 463.01,111.99 464.24,110.76 C466.27,108.73 466.51,108.69 466.82,110.31 C467.01,111.29 466.62,112.75 465.96,113.55 C464.59,115.20 462.00,115.50 462.00,114.00 ZM 364.62 113.48 C362.52,111.37 362.44,107.85 364.51,108.64 C366.02,109.22 367.68,113.65 366.74,114.59 C366.46,114.87 365.51,114.37 364.62,113.48 ZM 316.00 114.23 C316.00,112.79 319.93,109.60 320.72,110.39 C321.11,110.78 320.95,111.86 320.36,112.80 C319.19,114.66 316.00,115.70 316.00,114.23 ZM 402.00 114.23 C402.00,112.79 405.93,109.60 406.72,110.39 C407.11,110.78 406.95,111.86 406.36,112.80 C405.19,114.66 402.00,115.70 402.00,114.23 ZM 98.00 114.06 C98.00,113.54 99.01,112.41 100.24,111.54 C102.76,109.78 103.95,111.15 101.97,113.53 C100.61,115.17 98.00,115.52 98.00,114.06 ZM 330.61 112.42 C329.54,109.64 329.92,108.03 331.50,108.64 C332.33,108.95 333.00,110.29 333.00,111.61 C333.00,114.31 331.53,114.81 330.61,112.42 ZM 474.61 112.42 C473.54,109.64 473.92,108.03 475.50,108.64 C476.33,108.95 477.00,110.29 477.00,111.61 C477.00,114.31 475.53,114.81 474.61,112.42 ZM 92.48 111.92 C91.61,109.20 92.23,108.72 94.48,110.36 C95.48,111.09 95.99,112.21 95.59,112.85 C94.51,114.61 93.21,114.23 92.48,111.92 ZM 263.00 103.24 C263.00,102.13 266.68,100.01 267.38,100.72 C268.24,101.57 266.02,104.00 264.38,104.00 C263.62,104.00 263.00,103.66 263.00,103.24 ZM 161.25 114.34 C159.29,113.55 159.79,112.11 161.97,112.27 C163.06,112.35 164.17,113.00 164.44,113.71 C164.94,115.01 163.57,115.28 161.25,114.34 ZM 453.70 98.37 C453.04,97.71 455.12,94.00 456.15,94.00 C456.99,94.00 456.01,97.87 455.02,98.49 C454.61,98.74 454.02,98.68 453.70,98.37 ZM 289.96 45.98 C288.97,45.36 289.34,44.95 291.35,44.45 C294.71,43.61 295.53,44.19 293.12,45.70 C292.08,46.34 290.75,46.46 289.96,45.98 ZM 310.68 112.60 C310.05,110.97 310.89,109.81 312.14,110.59 C313.28,111.29 313.25,114.00 312.11,114.00 C311.62,114.00 310.97,113.37 310.68,112.60 Z" fill="rgba(1,1,1,1)"/>
<path d="M 48.43 91.31 C47.70,91.08 46.52,91.00 44.83,91.00 C42.72,91.00 41.00,90.55 41.00,90.00 C41.00,89.45 42.78,89.00 44.96,89.00 C46.71,89.00 47.87,88.82 48.69,88.37 C48.08,88.81 47.39,89.14 46.75,89.25 C44.59,89.63 44.61,89.69 47.28,90.81 C47.74,91.00 48.12,91.16 48.43,91.31 ZM 40.15 100.56 C40.34,99.64 40.95,98.92 41.50,98.95 C42.98,99.03 42.71,101.26 41.15,101.78 C40.31,102.06 39.94,101.61 40.15,100.56 ZM 48.24 94.76 C49.26,93.20 49.63,92.26 49.14,91.71 C49.85,92.27 49.48,92.86 48.32,94.64 Z" fill="rgba(241,191,184,1)"/>
<path d="M 48.32 94.64 C50.04,92.00 50.03,91.96 47.28,90.81 C44.61,89.69 44.59,89.63 46.75,89.25 C47.99,89.04 49.48,87.97 50.06,86.88 C50.75,85.59 51.75,85.10 52.93,85.48 C53.92,85.79 55.91,85.60 57.35,85.06 C59.71,84.16 59.94,84.28 59.73,86.28 C59.55,88.03 60.08,88.57 62.27,88.82 C65.59,89.20 64.91,91.00 61.44,91.00 C58.60,91.00 58.31,92.58 60.65,95.17 C61.57,96.18 61.85,97.00 61.28,97.00 C60.71,97.00 59.74,96.40 59.13,95.66 C57.75,94.00 52.32,94.15 49.04,95.95 L 46.57 97.30 L 48.32 94.64 Z" fill="rgba(245,232,228,1)"/>
</g>
</svg>