<svg width="35" height="35" viewBox="0 0 35 35" fill="none" xmlns="http://www.w3.org/2000/svg">
<path d="M25.5 12.9c-.15-1.05-.9-1.85-1.9-2C21.95 10.6 17.5 10.6 17.5 10.6s-4.45 0-6.1.3c-1 .15-1.75.95-1.9 2-.2 1.35-.2 4.1-.2 4.1s0 2.75.2 4.1c.15 1.05.9 1.85 1.9 2 1.65.3 6.1.3 6.1.3s4.45 0 6.1-.3c1-.15 1.75-.95 1.9-2 .2-1.35.2-4.1.2-4.1s0-2.75-.2-4.1Z" fill="black"/>
<path d="M15.7 19.6v-5.2l4.6 2.6-4.6 2.6Z" fill="white"/>
<circle cx="17.5" cy="17.5" r="17.25" stroke="#5E5E5E" stroke-width="0.5"/>
</svg>
